<?xml version="1.0" encoding="utf-8"?>
<!-- Generator: Adobe Illustrator 21.1.0, SVG Export Plug-In . SVG Version: 6.00 Build 0)  -->
<svg version="1.1" id="Layer_1" xmlns="http://www.w3.org/2000/svg" xmlns:xlink="http://www.w3.org/1999/xlink" x="0px" y="0px"
	 viewBox="0 0 444.7 37.9" style="enable-background:new 0 0 444.7 37.9;" xml:space="preserve">
<style type="text/css">
	.st0{fill:#231F20;}
</style>
<g>
	<path class="st0" d="M9.2,9V6.3H28V9h-7.8v22.5h-3V9H9.2z"/>
	<path class="st0" d="M37.2,31.5V6.3h3v11h12.5v-11h3v25.2h-3V20H40.2v11.5H37.2z"/>
	<path class="st0" d="M67.1,31.5V6.3h15.8V9H70.1v8.2h11.7v2.7H70.1v9h12.9v2.7H67.1z"/>
	<path class="st0" d="M123,6.3v18.1c0,2.3-0.7,4.1-2.1,5.5c-1.4,1.4-3.1,2.1-5.3,2.1c-4.6,0-7.7-2.5-7.7-7.5l3,0.3
		c0.1,3.2,2,4.5,4.7,4.5c2.5,0,4.4-1.8,4.4-5v-18H123z"/>
	<path class="st0" d="M153.6,28.4c-2.3,2.4-5.2,3.6-8.7,3.6c-3.4,0-6.3-1.2-8.6-3.6c-2.3-2.4-3.5-5.6-3.5-9.4c0-3.9,1.2-7.1,3.5-9.5
		c2.3-2.4,5.2-3.7,8.6-3.7c3.5,0,6.3,1.2,8.7,3.7c2.3,2.4,3.5,5.6,3.5,9.4C157.1,22.8,155.9,26,153.6,28.4z M144.9,29.4
		c2.6,0,4.8-1,6.5-2.9c1.7-1.9,2.6-4.5,2.6-7.6c0-3.1-0.9-5.6-2.6-7.5c-1.7-1.9-3.9-2.9-6.5-2.9c-2.6,0-4.8,1-6.5,2.9
		c-1.7,1.9-2.6,4.4-2.6,7.5c0,3.1,0.9,5.6,2.6,7.6C140.1,28.4,142.3,29.4,144.9,29.4z"/>
	<path class="st0" d="M185.6,6.3v16.7c0,2.8-0.9,5-2.6,6.6c-1.7,1.6-4,2.4-6.7,2.4c-2.8,0-5-0.8-6.8-2.4c-1.7-1.6-2.6-3.8-2.6-6.6
		V6.3h3v16.9c0,1.8,0.5,3.2,1.7,4.4c1.1,1.2,2.7,1.7,4.6,1.7c2,0,3.5-0.6,4.6-1.7c1.1-1.2,1.7-2.6,1.7-4.4V6.3H185.6z"/>
	<path class="st0" d="M211.5,31.5l-6.2-10.9h-5.7v10.9h-3V6.3h10c2.5,0,4.4,0.7,5.9,2c1.5,1.3,2.2,3,2.2,5.1c0,3.5-2.4,6.2-6.2,6.9
		l6.3,11.1H211.5z M199.6,9v8.9h6.5c3.6,0,5.6-1.6,5.6-4.5c0-2.9-2.1-4.5-5.6-4.5H199.6z"/>
	<path class="st0" d="M224.6,31.5V6.3h3.2l12,19c0.6,1,0.9,1.6,1.1,2V6.3h2.9v25.2h-3.2l-12-19c-0.6-1-0.9-1.6-1.1-2v20.9H224.6z"/>
	<path class="st0" d="M252.1,31.5l10-25.2h3.2l10,25.2h-3.1l-2.9-7.5h-11.2l-2.9,7.5H252.1z M263,11.8l-3.9,9.8h9.2l-3.8-9.8
		l-0.8-2.1L263,11.8z"/>
	<path class="st0" d="M283.7,31.5V6.3h3v22.5h12.6v2.7H283.7z"/>
	<path class="st0" d="M342.9,24.5c0,2.1-0.9,3.9-2.6,5.4c-1.7,1.4-3.9,2.2-6.6,2.2c-2.8,0-5-0.7-6.8-2.2c-1.8-1.5-2.8-3.3-3.2-5.6
		l2.7-1.4c0.7,4.3,3.4,6.6,7.4,6.6c1.9,0,3.3-0.5,4.4-1.4c1.1-0.9,1.7-2,1.7-3.3c0-2.8-2.1-4.2-6.7-5.1c-5.5-1-8.3-3.4-8.3-7.2
		c0-1.9,0.8-3.5,2.4-4.7c1.6-1.2,3.6-1.8,6-1.8c4.4,0,7.8,2.3,9.1,6l-2.4,1.4c-0.5-1.5-1.4-2.7-2.5-3.6c-1.1-0.9-2.5-1.3-4.1-1.3
		s-2.9,0.4-4,1c-1,0.7-1.5,1.7-1.5,2.9c0,2.5,2.2,3.9,6.9,4.8C340.2,18.2,342.9,20.5,342.9,24.5z"/>
	<path class="st0" d="M353.2,31.5V6.3h3v11h12.5v-11h3v25.2h-3V20h-12.5v11.5H353.2z"/>
	<path class="st0" d="M402.6,28.4c-2.3,2.4-5.2,3.6-8.7,3.6c-3.4,0-6.3-1.2-8.6-3.6c-2.3-2.4-3.5-5.6-3.5-9.4c0-3.9,1.2-7.1,3.5-9.5
		c2.3-2.4,5.2-3.7,8.6-3.7c3.5,0,6.3,1.2,8.7,3.7c2.3,2.4,3.5,5.6,3.5,9.4C406.1,22.8,404.9,26,402.6,28.4z M393.9,29.4
		c2.6,0,4.8-1,6.5-2.9c1.7-1.9,2.6-4.5,2.6-7.6c0-3.1-0.9-5.6-2.6-7.5c-1.7-1.9-3.9-2.9-6.5-2.9c-2.6,0-4.8,1-6.5,2.9
		c-1.7,1.9-2.6,4.4-2.6,7.5c0,3.1,0.9,5.6,2.6,7.6C389.1,28.4,391.3,29.4,393.9,29.4z"/>
	<path class="st0" d="M416.2,31.5V6.3h10.6c2.6,0,4.8,0.7,6.3,2.2c1.6,1.4,2.4,3.3,2.4,5.7c0,2.3-0.8,4.2-2.4,5.7
		c-1.6,1.4-3.7,2.2-6.3,2.2h-7.6v9.5H416.2z M419.2,9v10.4h7.4c3.7,0,5.8-1.8,5.8-5.2c0-3.5-2.1-5.2-5.8-5.2H419.2z"/>
</g>
</svg>
